<?xml version="1.0" encoding="UTF-8"?>
<svg id="Layer_1" data-name="Layer 1" xmlns="http://www.w3.org/2000/svg" viewBox="0 0 1600 486">
  <defs>
    <style>
      .cls-1 {
        fill: #fff;
      }

      .cls-2 {
        stroke: #fff;
        stroke-miterlimit: 10;
      }
    </style>
  </defs>
  <rect class="cls-2" x="-10.99" y="-20.13" width="1663" height="518"/>
  <g>
    <polygon class="cls-1" points="279.47 228.74 576.04 211.72 576.42 220.71 279.47 228.74 279.47 228.74"/>
    <path class="cls-1" d="M314.04,462.62c38.04-24.69,74.41-51.55,108.72-81.1,56.97-49.12,107.67-105.46,149.74-167.83,0,0,1.32-1.9,1.32-1.9l2.25-.07c98.65-3.1,197.39-6.33,296.12-7,25.97-.24,53.23-1.87,79.19-.14,6.81.48,13.28.62,20.16,2.01,6.88,1.24,9.72,6.71,3.2,11.77-8.45,6.14-18,9.5-27.42,13.34-21.6,8.26-43.82,15.02-66.13,21.04-28.67,7.78-58.1,12.89-87.46,17.08-37.9,5.41-79.59,11.19-117.2,17.04-26.05,3.93-51.9,8.69-77.95,12.68-52.07,8.02-104.58,12.37-156.73,19.75-52.13,7.18-104.1,15.6-155.95,24.54-51.82,8.92-103.02,21.33-153.18,37.08,0,0-.62-3.07-.62-3.07,0,0,109.73-9.65,109.73-9.65,27.19-2.48,69.62-6.42,96.1-7.71,75.57-3.5,157.96-12.15,233.39-18.69,30.3-2.46,63.75-4.68,94.96-.85,33.53,3.21,47.94,12.54,65.65,40.85,4.3,6.34,9.17,11.84,16.36,14.32,9.16,2.99,20.06,2.84,28.37-2.19,6.18-3.88,9.66-10.68,10.5-17.95,13.53-37.38,26.3-75.31,35.4-114.03,2.29-11.42,5.96-27.64,8.61-38.83,8.98-37.13,20.69-78.36,29.86-115.43,3.13-12.82,5.88-25.69,7.01-38.74,1.07-13,.96-26.33,0-39.31-.66-5.99-1.71-18.13-7.05-20.14-4.1-.4-7.66,3.52-10.45,6.27-8.68,9.61-15.3,21.23-21.47,32.65-6.1,11.62-11.56,23.7-16.38,35.92-14.33,36.56-19.36,77.25-10.9,115.8,10.02,55.31,42.57,95.66,96.43,113.31,37.04,12.44,78.9,13.19,115.49-1.17,5.03-2.26,29.73-11.69,22.36-16.08-3.82-2.6-8.6-3.61-13.17-4.62-3.18-.65-6.42-1.14-9.66-1.55-39.14-4.18-79.54-.94-116.8,12.01-6.22,2.13-12.37,4.5-18.47,7.02-60.52,26.97-122.23,51.6-185.73,70.7,0,0-.54-3.33-.54-3.33,147.1-2.84,339.17-16.12,487-24.67,126.24-7.4,252.62-12.61,379.05-14.88-108.28,4.66-216.59,8.37-324.8,14.34-168.47,9.38-372.95,24.9-541.17,28.62,0,0-12.56.38-12.56.38,54.65-16.56,108.55-35.84,160.89-58.65,21.25-9.24,42.35-19.39,64.63-26.13,35.16-10.53,72.54-13.06,108.96-9.18,3.32.42,6.64.92,9.95,1.59,5.04,1.12,10.3,2.21,14.71,5.3,6.8,5.24.48,11.07-5.01,14.09-17.62,9.8-37.15,16.04-57.16,18.34-33.29,3.79-67.54-1.64-97.91-15.83-45.04-20.5-71.88-60.88-80.5-108.76,0,0-1.91-9.86-1.91-9.86-.55-4.13-1.07-8.32-1.59-12.45-.34-5.57-.87-11.96-.75-17.55-.18-47.03,17.65-92.33,41.78-132.05,6.56-10.51,25.61-38.24,34.22-14.96,3.56,11.35,3.35,23.47,3.59,35.16.06,6.66-.11,13.39-.7,20.06-2.46,26.66-10.51,52.14-16.9,77.95-8.26,32.09-17.23,63.91-24.2,96.25-8.76,44.64-24.21,92.58-39.26,133.04-.82,6.93-3.8,14.17-9.29,18.9-9.52,8.56-24.57,9.22-36.21,5.37-8.07-2.66-14.39-9.48-18.82-16.18-3.04-4.42-5.79-8.84-8.91-12.91-6.08-8.11-13.94-14.94-23.17-19.08-9.23-4.1-19.57-5.52-29.97-6.7-4.38-.5-11.21-1.32-15.59-1.55-30.68-1.34-61.73.64-92.27,3.69-67.1,5.67-138.67,12.64-205.98,15.75-5.79.21-21.25.88-27.51,1.33-50.91,3.08-140.59,11.61-191.97,15.78,0,0-14.29,1.23-14.29,1.23,0,0,13.67-4.3,13.67-4.3,62.81-20.06,127.37-33.93,192.43-44.31,64.9-11.03,130.04-21.01,195.48-28.21,52.36-5.54,104.16-14.75,156.09-23.31,51.05-8.41,105.04-15,156.02-24.03,25.69-4.72,51.27-11.44,76.19-19.23,18.61-5.97,37.37-12.12,54.91-20.65,3.37-1.79,7.03-3.56,9.21-6.07-.04.07-.13.64.08,1.07.2.43.35.47.28.44-3.53-1.48-7.62-1.49-11.66-1.92-35.51-2.8-72.59.06-108.26.36-89.98,1.15-185.87,5.2-276.15,8.68,0,0,3.56-1.97,3.56-1.97-28.82,42.41-61.83,81.95-98.07,118.21-49.76,49.33-106.13,92.44-167.85,125.67h0Z"/>
  </g>
</svg>